<svg xmlns="http://www.w3.org/2000/svg" width="73.443" height="55.782" viewBox="0 0 73.443 55.782">
  <path id="message-closed-envelope" d="M64.727,45.945H8.717A8.559,8.559,0,0,0,0,54.316V93.356a8.559,8.559,0,0,0,8.717,8.371H64.727a8.559,8.559,0,0,0,8.717-8.371V54.316A8.559,8.559,0,0,0,64.727,45.945Zm0,48.392H8.717c-.707,0-1.326-.458-1.326-.981V59.479L32.722,80.865a2.886,2.886,0,0,0,1.86.68H38.86a2.888,2.888,0,0,0,1.86-.68L66.053,59.478V93.356C66.053,93.878,65.433,94.337,64.727,94.337Zm-28-20.13L12.084,53.336H61.36Z" transform="translate(0 -45.945)" fill="#282828"/>
</svg>
