<svg xmlns="http://www.w3.org/2000/svg" width="25" height="25" viewBox="0 0 30.531 29.769">
  <path id="Icon_awesome-github" fill="#3f81cc" data-name="Icon awesome-github" d="M10.212,24.532c0,.123-.142.222-.32.222-.2.018-.345-.08-.345-.222,0-.123.142-.222.32-.222C10.052,24.292,10.212,24.391,10.212,24.532ZM8.3,24.255c-.043.123.08.265.265.3a.289.289,0,0,0,.382-.123c.037-.123-.08-.265-.265-.32A.316.316,0,0,0,8.3,24.255Zm2.721-.1c-.179.043-.3.16-.283.3.018.123.179.2.363.16s.3-.16.283-.283S11.2,24.132,11.018,24.151ZM15.069.563A14.76,14.76,0,0,0,0,15.582,15.433,15.433,0,0,0,10.434,30.306c.788.142,1.065-.345,1.065-.745,0-.382-.018-2.487-.018-3.78,0,0-4.309.923-5.214-1.834,0,0-.7-1.791-1.711-2.253,0,0-1.41-.966.1-.948A3.249,3.249,0,0,1,7.03,22.335a3.254,3.254,0,0,0,4.487,1.287,3.421,3.421,0,0,1,.985-2.074c-3.441-.382-6.913-.88-6.913-6.8a4.665,4.665,0,0,1,1.453-3.626A5.816,5.816,0,0,1,7.2,6.94C8.488,6.54,11.449,8.6,11.449,8.6a14.542,14.542,0,0,1,7.731,0s2.961-2.068,4.247-1.662a5.813,5.813,0,0,1,.16,4.18,4.785,4.785,0,0,1,1.588,3.626c0,5.94-3.626,6.414-7.067,6.8A3.64,3.64,0,0,1,19.156,24.4c0,2.074-.018,4.641-.018,5.146,0,.4.283.886,1.065.745A15.29,15.29,0,0,0,30.531,15.582C30.531,7.044,23.607.563,15.069.563ZM5.983,21.793c-.08.062-.062.2.043.32.1.1.24.142.32.062.08-.062.062-.2-.043-.32C6.2,21.756,6.063,21.713,5.983,21.793Zm-.665-.5c-.043.08.018.179.142.24a.183.183,0,0,0,.265-.043c.043-.08-.018-.179-.142-.24C5.46,21.214,5.361,21.233,5.318,21.294Zm1.994,2.191c-.1.08-.062.265.08.382.142.142.32.16.4.062.08-.08.043-.265-.08-.382C7.577,23.406,7.393,23.387,7.313,23.486Zm-.7-.9c-.1.062-.1.222,0,.363s.265.2.345.142a.281.281,0,0,0,0-.382C6.87,22.562,6.71,22.5,6.611,22.581Z" transform="translate(0 -0.563)"/>
</svg>
